<?xml version="1.0" encoding="UTF-8"?>
<!DOCTYPE svg PUBLIC "-//W3C//DTD SVG 1.1//EN" "http://www.w3.org/Graphics/SVG/1.1/DTD/svg11.dtd">
<svg version="1.2" width="183.62mm" height="183.62mm" viewBox="0 0 18362 18362" preserveAspectRatio="xMidYMid" fill-rule="evenodd" stroke-width="28.222" stroke-linejoin="round" xmlns="http://www.w3.org/2000/svg" xmlns:ooo="http://xml.openoffice.org/svg/export" xmlns:xlink="http://www.w3.org/1999/xlink" xmlns:presentation="http://sun.com/xmlns/staroffice/presentation" xmlns:smil="http://www.w3.org/2001/SMIL20/" xmlns:anim="urn:oasis:names:tc:opendocument:xmlns:animation:1.0" xmlns:svg="urn:oasis:names:tc:opendocument:xmlns:svg-compatible:1.0" xml:space="preserve">
 <defs class="ClipPathGroup">
  <clipPath id="presentation_clip_path" clipPathUnits="userSpaceOnUse">
   <rect x="0" y="0" width="18362" height="18362"/>
  </clipPath>
  <clipPath id="presentation_clip_path_shrink" clipPathUnits="userSpaceOnUse">
   <rect x="18" y="18" width="18326" height="18326"/>
  </clipPath>
 </defs>
 <defs class="TextShapeIndex">
  <g ooo:slide="id1" ooo:id-list="id3"/>
 </defs>
 <defs class="EmbeddedBulletChars">
  <g id="bullet-char-template-57356" transform="scale(0.00048828125,-0.00048828125)">
   <path d="M 580,1141 L 1163,571 580,0 -4,571 580,1141 Z"/>
  </g>
  <g id="bullet-char-template-57354" transform="scale(0.00048828125,-0.00048828125)">
   <path d="M 8,1128 L 1137,1128 1137,0 8,0 8,1128 Z"/>
  </g>
  <g id="bullet-char-template-10146" transform="scale(0.00048828125,-0.00048828125)">
   <path d="M 174,0 L 602,739 174,1481 1456,739 174,0 Z M 1358,739 L 309,1346 659,739 1358,739 Z"/>
  </g>
  <g id="bullet-char-template-10132" transform="scale(0.00048828125,-0.00048828125)">
   <path d="M 2015,739 L 1276,0 717,0 1260,543 174,543 174,936 1260,936 717,1481 1274,1481 2015,739 Z"/>
  </g>
  <g id="bullet-char-template-10007" transform="scale(0.00048828125,-0.00048828125)">
   <path d="M 0,-2 C -7,14 -16,27 -25,37 L 356,567 C 262,823 215,952 215,954 215,979 228,992 255,992 264,992 276,990 289,987 310,991 331,999 354,1012 L 381,999 492,748 772,1049 836,1024 860,1049 C 881,1039 901,1025 922,1006 886,937 835,863 770,784 769,783 710,716 594,584 L 774,223 C 774,196 753,168 711,139 L 727,119 C 717,90 699,76 672,76 641,76 570,178 457,381 L 164,-76 C 142,-110 111,-127 72,-127 30,-127 9,-110 8,-76 1,-67 -2,-52 -2,-32 -2,-23 -1,-13 0,-2 Z"/>
  </g>
  <g id="bullet-char-template-10004" transform="scale(0.00048828125,-0.00048828125)">
   <path d="M 285,-33 C 182,-33 111,30 74,156 52,228 41,333 41,471 41,549 55,616 82,672 116,743 169,778 240,778 293,778 328,747 346,684 L 369,508 C 377,444 397,411 428,410 L 1163,1116 C 1174,1127 1196,1133 1229,1133 1271,1133 1292,1118 1292,1087 L 1292,965 C 1292,929 1282,901 1262,881 L 442,47 C 390,-6 338,-33 285,-33 Z"/>
  </g>
  <g id="bullet-char-template-9679" transform="scale(0.00048828125,-0.00048828125)">
   <path d="M 813,0 C 632,0 489,54 383,161 276,268 223,411 223,592 223,773 276,916 383,1023 489,1130 632,1184 813,1184 992,1184 1136,1130 1245,1023 1353,916 1407,772 1407,592 1407,412 1353,268 1245,161 1136,54 992,0 813,0 Z"/>
  </g>
  <g id="bullet-char-template-8226" transform="scale(0.00048828125,-0.00048828125)">
   <path d="M 346,457 C 273,457 209,483 155,535 101,586 74,649 74,723 74,796 101,859 155,911 209,963 273,989 346,989 419,989 480,963 531,910 582,859 608,796 608,723 608,648 583,586 532,535 482,483 420,457 346,457 Z"/>
  </g>
  <g id="bullet-char-template-8211" transform="scale(0.00048828125,-0.00048828125)">
   <path d="M -4,459 L 1135,459 1135,606 -4,606 -4,459 Z"/>
  </g>
  <g id="bullet-char-template-61548" transform="scale(0.00048828125,-0.00048828125)">
   <path d="M 173,740 C 173,903 231,1043 346,1159 462,1274 601,1332 765,1332 928,1332 1067,1274 1183,1159 1299,1043 1357,903 1357,740 1357,577 1299,437 1183,322 1067,206 928,148 765,148 601,148 462,206 346,322 231,437 173,577 173,740 Z"/>
  </g>
 </defs>
 <g>
  <g id="id2" class="Master_Slide">
   <g id="bg-id2" class="Background"/>
   <g id="bo-id2" class="BackgroundObjects"/>
  </g>
 </g>
 <g class="SlideGroup">
  <g>
   <g id="container-id1">
    <g id="id1" class="Slide" clip-path="url(#presentation_clip_path)">
     <g class="Page">
      <g class="Graphic">
       <g id="id3">
        <rect class="BoundingBox" stroke="none" fill="none" x="0" y="0" width="18362" height="18362"/>
        <path fill="rgb(0,0,0)" stroke="none" d="M 4160,12456 L 4160,7711 4272,7680 C 4484,7621 5133,7774 5612,7996 5874,8118 6123,8269 6402,8476 L 6619,8638 6619,12919 6619,17200 5390,17200 4160,17200 4160,12456 Z M 11746,15178 C 11746,13265 11749,13157 11792,13170 12491,13375 12824,13426 13584,13444 L 14205,13458 14205,15329 14205,17200 12976,17200 11746,17200 11746,15178 Z M 13486,13041 C 12461,12935 11613,12629 10765,12058 10336,11768 9977,11466 9532,11019 L 9182,10667 8836,11019 C 8452,11409 8226,11608 7839,11897 7595,12079 7079,12402 7033,12402 7021,12402 7012,11904 7013,11294 L 7015,10187 7213,10016 C 7322,9923 7539,9706 7695,9535 L 7979,9223 7825,9049 C 7391,8558 6785,8038 6354,7785 5968,7560 5515,7389 5062,7299 4733,7234 4057,7234 3820,7298 2917,7547 2359,8361 2416,9348 2465,10171 2910,10809 3618,11069 L 3768,11124 3768,12065 C 3768,12851 3762,13005 3732,13005 3626,13005 3057,12838 2822,12737 1663,12244 887,11312 627,10100 558,9776 530,9010 575,8666 793,7007 1928,5810 3637,5437 3953,5368 4945,5369 5324,5438 6647,5680 7715,6281 8824,7405 L 9184,7771 9583,7377 C 10025,6940 10336,6673 10703,6419 10953,6246 11303,6031 11336,6031 11346,6031 11354,6530 11354,7140 L 11354,8250 11141,8443 C 11025,8549 10813,8765 10671,8923 L 10414,9210 10469,9289 C 10579,9443 11156,10020 11390,10210 12198,10864 12933,11156 13852,11188 14222,11200 14298,11196 14506,11146 15242,10969 15754,10437 15909,9689 15994,9276 15961,8813 15819,8440 15635,7954 15214,7533 14748,7368 L 14611,7320 14604,6374 14597,5428 14656,5428 C 14689,5428 14829,5458 14967,5493 16447,5871 17518,7032 17750,8508 17862,9228 17811,9900 17593,10558 17296,11452 16653,12184 15778,12624 15475,12776 15002,12936 14689,12993 14463,13034 13710,13065 13486,13041 L 13486,13041 Z M 12651,10391 C 12377,10253 12283,10194 11972,9965 L 11740,9793 11747,8876 C 11751,8371 11753,6988 11751,5802 L 11746,3645 9183,3645 6619,3645 6619,4461 C 6619,5141 6613,5274 6583,5263 6485,5225 6166,5137 5992,5100 5596,5015 5244,4983 4703,4983 L 4160,4982 4160,4314 4160,3645 3179,3645 2199,3645 2199,2426 2199,1207 9183,1207 16167,1207 16167,2426 16167,3645 15186,3645 14205,3645 14205,7183 C 14205,9796 14198,10726 14176,10740 14099,10787 13792,10774 13538,10713 13207,10634 12946,10539 12651,10391 Z"/>
       </g>
      </g>
     </g>
    </g>
   </g>
  </g>
 </g>
</svg>